<svg xmlns="http://www.w3.org/2000/svg" xmlns:xlink="http://www.w3.org/1999/xlink" version="1.1" x="0px" y="0px" viewBox="0 0 100 125" enable-background="new 0 0 100 100" xml:space="preserve"><path d="M82,58.572V55h-5v-6.208l-26.691-10.23l-0.24-0.075c-2.563-0.628-3.425-4.517-3.385-7.656l0.024-1.942L34,28.354v-0.977  c0-0.724,0-1.818-0.81-2.621c-0.781-0.774-1.733-0.77-2.567-0.758L30.282,24l-2.18-0.002c-1.35-0.007-3.052-0.021-4.192,1.109  c-0.596,0.592-0.91,1.376-0.91,2.27v21.874c0,2.108,0.737,4.113,1.955,5.749H20v3.684c-3.941,1.273-6.803,4.975-6.803,9.334  c0,5.409,4.401,9.811,9.811,9.811c4.433,0,8.185-2.958,9.396-7.002c1.211,4.044,4.963,7.002,9.396,7.002  c4.434,0,8.186-2.959,9.396-7.004c1.211,4.045,4.963,7.004,9.396,7.004c4.433,0,8.185-2.958,9.396-7.002  c1.212,4.044,4.964,7.002,9.396,7.002c5.409,0,9.811-4.401,9.811-9.811C89.195,63.515,86.142,59.721,82,58.572z M27,28.016  c0.341-0.022,0.769-0.021,1.074-0.018L30,28v4.189l12.743,0.535c0.055,0.719,0.149,1.401,0.276,2.054l-5.717,1.911  c-1.048,0.35-1.613,1.483-1.263,2.53c0.279,0.838,1.06,1.367,1.896,1.367c0.21,0,0.424-0.034,0.634-0.104l5.77-1.929  c0.313,0.563,0.671,1.071,1.066,1.524l-3.839,3.287c-0.839,0.719-0.937,1.981-0.219,2.82c0.396,0.462,0.956,0.699,1.521,0.699  c0.46,0,0.923-0.158,1.3-0.48l4.768-4.082c0.017,0.005,0.032,0.011,0.049,0.016l1.174,0.45l-1.592,5.509  c-0.306,1.061,0.306,2.17,1.367,2.477c0.186,0.053,0.372,0.079,0.556,0.079c0.868,0,1.667-0.57,1.921-1.446l1.497-5.182L55,44.644  V50c0,1.104,0.896,2,2,2s2-0.896,2-2v-3.824l14,5.366V55H32.572C29.656,55,27,52.26,27,49.251V28.016z M24,59h54v4H24V59z   M23.008,73.828c-3.204,0-5.811-2.606-5.811-5.811c0-2.103,1.126-3.941,2.803-4.962V67h8.724c0.059,0.331,0.095,0.67,0.095,1.018  C28.818,71.222,26.212,73.828,23.008,73.828z M41.8,73.828c-3.204,0-5.811-2.606-5.811-5.811c0-0.348,0.036-0.687,0.095-1.018  h11.432c0.059,0.331,0.095,0.67,0.095,1.018C47.61,71.222,45.004,73.828,41.8,73.828z M60.593,73.828  c-3.204,0-5.811-2.606-5.811-5.811c0-0.348,0.036-0.687,0.095-1.018h11.432c0.059,0.331,0.095,0.67,0.095,1.018  C66.403,71.222,63.797,73.828,60.593,73.828z M79.385,73.828c-3.204,0-5.811-2.606-5.811-5.811c0-0.348,0.036-0.687,0.095-1.018H82  v-4.164c1.893,0.959,3.195,2.919,3.195,5.182C85.195,71.222,82.589,73.828,79.385,73.828z"/><text x="0" y="115" fill="#000000" font-size="5px" font-weight="bold" font-family="'Helvetica Neue', Helvetica, Arial-Unicode, Arial, Sans-serif">Created by Slawek Jurczyk</text><text x="0" y="120" fill="#000000" font-size="5px" font-weight="bold" font-family="'Helvetica Neue', Helvetica, Arial-Unicode, Arial, Sans-serif">from the Noun Project</text></svg>