<?xml version="1.0" encoding="UTF-8" standalone="no"?>
<!DOCTYPE svg PUBLIC "-//W3C//DTD SVG 1.1//EN"
 "http://www.w3.org/Graphics/SVG/1.1/DTD/svg11.dtd">
<!-- Generated by graphviz version 2.40.1 (20161225.0304)
 -->
<!-- Title: dependency&#45;cruiser output Pages: 1 -->
<svg width="467pt" height="361pt"
 viewBox="0.00 0.00 467.05 361.00" xmlns="http://www.w3.org/2000/svg" xmlns:xlink="http://www.w3.org/1999/xlink">
<g id="graph0" class="graph" transform="scale(1 1) rotate(0) translate(4 357)">
<title>dependency&#45;cruiser output</title>
<polygon fill="#ffffff" stroke="transparent" points="-4,4 -4,-357 463.0488,-357 463.0488,4 -4,4"/>
<g id="clust1" class="cluster">
<title>cluster_/..</title>
<path fill="none" stroke="#000000" stroke-width="2" d="M20,-67C20,-67 439.0488,-67 439.0488,-67 445.0488,-67 451.0488,-73 451.0488,-79 451.0488,-79 451.0488,-333 451.0488,-333 451.0488,-339 445.0488,-345 439.0488,-345 439.0488,-345 20,-345 20,-345 14,-345 8,-339 8,-333 8,-333 8,-79 8,-79 8,-73 14,-67 20,-67"/>
<text text-anchor="middle" x="229.5244" y="-333.8" font-family="Helvetica,sans-Serif" font-weight="bold" font-size="9.00" fill="#000000">..</text>
</g>
<g id="clust2" class="cluster">
<title>cluster_/../packages</title>
<path fill="none" stroke="#000000" stroke-width="2" d="M28,-75C28,-75 431.0488,-75 431.0488,-75 437.0488,-75 443.0488,-81 443.0488,-87 443.0488,-87 443.0488,-308 443.0488,-308 443.0488,-314 437.0488,-320 431.0488,-320 431.0488,-320 28,-320 28,-320 22,-320 16,-314 16,-308 16,-308 16,-87 16,-87 16,-81 22,-75 28,-75"/>
<text text-anchor="middle" x="229.5244" y="-308.8" font-family="Helvetica,sans-Serif" font-weight="bold" font-size="9.00" fill="#000000">packages</text>
</g>
<g id="clust3" class="cluster">
<title>cluster_/../packages/babel&#45;plugin&#45;blade</title>
<path fill="none" stroke="#000000" stroke-width="2" d="M36,-142C36,-142 423.0488,-142 423.0488,-142 429.0488,-142 435.0488,-148 435.0488,-154 435.0488,-154 435.0488,-283 435.0488,-283 435.0488,-289 429.0488,-295 423.0488,-295 423.0488,-295 36,-295 36,-295 30,-295 24,-289 24,-283 24,-283 24,-154 24,-154 24,-148 30,-142 36,-142"/>
<text text-anchor="middle" x="229.5244" y="-283.8" font-family="Helvetica,sans-Serif" font-weight="bold" font-size="9.00" fill="#000000">babel&#45;plugin&#45;blade</text>
</g>
<g id="clust4" class="cluster">
<title>cluster_/../packages/babel&#45;plugin&#45;blade/src</title>
<path fill="none" stroke="#000000" stroke-width="2" d="M44,-176C44,-176 415.0488,-176 415.0488,-176 421.0488,-176 427.0488,-182 427.0488,-188 427.0488,-188 427.0488,-258 427.0488,-258 427.0488,-264 421.0488,-270 415.0488,-270 415.0488,-270 44,-270 44,-270 38,-270 32,-264 32,-258 32,-258 32,-188 32,-188 32,-182 38,-176 44,-176"/>
<text text-anchor="middle" x="229.5244" y="-258.8" font-family="Helvetica,sans-Serif" font-weight="bold" font-size="9.00" fill="#000000">src</text>
</g>
<g id="clust5" class="cluster">
<title>cluster_/../packages/blade.macro</title>
<path fill="none" stroke="#000000" stroke-width="2" d="M44,-83C44,-83 90,-83 90,-83 96,-83 102,-89 102,-95 102,-95 102,-122 102,-122 102,-128 96,-134 90,-134 90,-134 44,-134 44,-134 38,-134 32,-128 32,-122 32,-122 32,-95 32,-95 32,-89 38,-83 44,-83"/>
<text text-anchor="middle" x="67" y="-122.8" font-family="Helvetica,sans-Serif" font-weight="bold" font-size="9.00" fill="#000000">blade.macro</text>
</g>
<g id="clust6" class="cluster">
<title>cluster_/babel&#45;plugin&#45;blade</title>
<path fill="none" stroke="#000000" stroke-width="2" d="M134,-8C134,-8 205,-8 205,-8 211,-8 217,-14 217,-20 217,-20 217,-47 217,-47 217,-53 211,-59 205,-59 205,-59 134,-59 134,-59 128,-59 122,-53 122,-47 122,-47 122,-20 122,-20 122,-14 128,-8 134,-8"/>
<text text-anchor="middle" x="169.5" y="-47.8" font-family="Helvetica,sans-Serif" font-weight="bold" font-size="9.00" fill="#000000">babel&#45;plugin&#45;blade</text>
</g>
<!-- ../packages/babel&#45;plugin&#45;blade/macro.js -->
<g id="node1" class="node">
<title>../packages/babel&#45;plugin&#45;blade/macro.js</title>
<g id="a_node1"><a xlink:href="../packages/babel-plugin-blade/macro.js" xlink:title="macro.js">
<path fill="#ffffcc" stroke="#000000" d="M88.3333,-167.5C88.3333,-167.5 45.6667,-167.5 45.6667,-167.5 42.8333,-167.5 40,-164.6667 40,-161.8333 40,-161.8333 40,-156.1667 40,-156.1667 40,-153.3333 42.8333,-150.5 45.6667,-150.5 45.6667,-150.5 88.3333,-150.5 88.3333,-150.5 91.1667,-150.5 94,-153.3333 94,-156.1667 94,-156.1667 94,-161.8333 94,-161.8333 94,-164.6667 91.1667,-167.5 88.3333,-167.5"/>
<text text-anchor="middle" x="67" y="-156.3" font-family="Helvetica,sans-Serif" font-size="9.00" fill="#000000">macro.js</text>
</a>
</g>
</g>
<!-- ../packages/babel&#45;plugin&#45;blade/src/dataStructures.js -->
<g id="node2" class="node">
<title>../packages/babel&#45;plugin&#45;blade/src/dataStructures.js</title>
<g id="a_node2"><a xlink:href="../packages/babel-plugin-blade/src/dataStructures.js" xlink:title="dataStructures.js">
<path fill="#ffffcc" stroke="#000000" d="M322.6308,-230.5C322.6308,-230.5 250.9,-230.5 250.9,-230.5 248.0666,-230.5 245.2333,-227.6667 245.2333,-224.8333 245.2333,-224.8333 245.2333,-219.1667 245.2333,-219.1667 245.2333,-216.3333 248.0666,-213.5 250.9,-213.5 250.9,-213.5 322.6308,-213.5 322.6308,-213.5 325.4641,-213.5 328.2975,-216.3333 328.2975,-219.1667 328.2975,-219.1667 328.2975,-224.8333 328.2975,-224.8333 328.2975,-227.6667 325.4641,-230.5 322.6308,-230.5"/>
<text text-anchor="middle" x="286.7654" y="-219.3" font-family="Helvetica,sans-Serif" font-size="9.00" fill="#000000">dataStructures.js</text>
</a>
</g>
</g>
<!-- ../packages/babel&#45;plugin&#45;blade/src/helpers.js -->
<g id="node3" class="node">
<title>../packages/babel&#45;plugin&#45;blade/src/helpers.js</title>
<g id="a_node3"><a xlink:href="../packages/babel-plugin-blade/src/helpers.js" xlink:title="helpers.js">
<path fill="#ffffcc" stroke="#000000" d="M413.1433,-230.5C413.1433,-230.5 370.4363,-230.5 370.4363,-230.5 367.603,-230.5 364.7696,-227.6667 364.7696,-224.8333 364.7696,-224.8333 364.7696,-219.1667 364.7696,-219.1667 364.7696,-216.3333 367.603,-213.5 370.4363,-213.5 370.4363,-213.5 413.1433,-213.5 413.1433,-213.5 415.9766,-213.5 418.81,-216.3333 418.81,-219.1667 418.81,-219.1667 418.81,-224.8333 418.81,-224.8333 418.81,-227.6667 415.9766,-230.5 413.1433,-230.5"/>
<text text-anchor="middle" x="391.7898" y="-219.3" font-family="Helvetica,sans-Serif" font-size="9.00" fill="#000000">helpers.js</text>
</a>
</g>
</g>
<!-- ../packages/babel&#45;plugin&#45;blade/src/dataStructures.js&#45;&gt;../packages/babel&#45;plugin&#45;blade/src/helpers.js -->
<g id="edge1" class="edge">
<title>../packages/babel&#45;plugin&#45;blade/src/dataStructures.js&#45;&gt;../packages/babel&#45;plugin&#45;blade/src/helpers.js</title>
<path fill="none" stroke="#000000" d="M328.5756,-222C337.1024,-222 346.0224,-222 354.3838,-222"/>
<polygon fill="#000000" stroke="#000000" points="354.6047,-225.5001 364.6047,-222 354.6046,-218.5001 354.6047,-225.5001"/>
</g>
<!-- ../packages/babel&#45;plugin&#45;blade/src/index.js -->
<g id="node4" class="node">
<title>../packages/babel&#45;plugin&#45;blade/src/index.js</title>
<g id="a_node4"><a xlink:href="../packages/babel-plugin-blade/src/index.js" xlink:title="index.js">
<path fill="#ffffcc" stroke="#000000" d="M190.3333,-237.5C190.3333,-237.5 147.6667,-237.5 147.6667,-237.5 144.8333,-237.5 142,-234.6667 142,-231.8333 142,-231.8333 142,-226.1667 142,-226.1667 142,-223.3333 144.8333,-220.5 147.6667,-220.5 147.6667,-220.5 190.3333,-220.5 190.3333,-220.5 193.1667,-220.5 196,-223.3333 196,-226.1667 196,-226.1667 196,-231.8333 196,-231.8333 196,-234.6667 193.1667,-237.5 190.3333,-237.5"/>
<text text-anchor="middle" x="169" y="-226.3" font-family="Helvetica,sans-Serif" font-size="9.00" fill="#000000">index.js</text>
</a>
</g>
</g>
<!-- ../packages/babel&#45;plugin&#45;blade/src/index.js&#45;&gt;../packages/babel&#45;plugin&#45;blade/src/dataStructures.js -->
<g id="edge2" class="edge">
<title>../packages/babel&#45;plugin&#45;blade/src/index.js&#45;&gt;../packages/babel&#45;plugin&#45;blade/src/dataStructures.js</title>
<path fill="none" stroke="#000000" d="M196.0178,-227.3941C207.598,-226.7057 221.5313,-225.8775 234.9655,-225.079"/>
<polygon fill="#000000" stroke="#000000" points="235.3196,-228.5642 245.0942,-224.4769 234.9041,-221.5766 235.3196,-228.5642"/>
</g>
<!-- ../packages/babel&#45;plugin&#45;blade/src/index.js&#45;&gt;../packages/babel&#45;plugin&#45;blade/src/helpers.js -->
<g id="edge3" class="edge">
<title>../packages/babel&#45;plugin&#45;blade/src/index.js&#45;&gt;../packages/babel&#45;plugin&#45;blade/src/helpers.js</title>
<path fill="none" stroke="#000000" d="M196.1891,-233.1042C228.0139,-237.2748 282.2578,-242.4111 328.5308,-237 337.1524,-235.9918 346.303,-234.2356 354.8866,-232.2718"/>
<polygon fill="#000000" stroke="#000000" points="355.7456,-235.6651 364.6369,-229.9036 354.0933,-228.8628 355.7456,-235.6651"/>
</g>
<!-- ../packages/babel&#45;plugin&#45;blade/src/macro.js -->
<g id="node5" class="node">
<title>../packages/babel&#45;plugin&#45;blade/src/macro.js</title>
<g id="a_node5"><a xlink:href="../packages/babel-plugin-blade/src/macro.js" xlink:title="macro.js">
<path fill="#ffffcc" stroke="#000000" d="M88.3333,-237.5C88.3333,-237.5 45.6667,-237.5 45.6667,-237.5 42.8333,-237.5 40,-234.6667 40,-231.8333 40,-231.8333 40,-226.1667 40,-226.1667 40,-223.3333 42.8333,-220.5 45.6667,-220.5 45.6667,-220.5 88.3333,-220.5 88.3333,-220.5 91.1667,-220.5 94,-223.3333 94,-226.1667 94,-226.1667 94,-231.8333 94,-231.8333 94,-234.6667 91.1667,-237.5 88.3333,-237.5"/>
<text text-anchor="middle" x="67" y="-226.3" font-family="Helvetica,sans-Serif" font-size="9.00" fill="#000000">macro.js</text>
</a>
</g>
</g>
<!-- ../packages/babel&#45;plugin&#45;blade/src/macro.js&#45;&gt;../packages/babel&#45;plugin&#45;blade/src/index.js -->
<g id="edge4" class="edge">
<title>../packages/babel&#45;plugin&#45;blade/src/macro.js&#45;&gt;../packages/babel&#45;plugin&#45;blade/src/index.js</title>
<path fill="none" stroke="#000000" d="M94.0663,-229C105.5936,-229 119.2305,-229 131.6902,-229"/>
<polygon fill="#000000" stroke="#000000" points="131.8072,-232.5001 141.8072,-229 131.8071,-225.5001 131.8072,-232.5001"/>
</g>
<!-- ../packages/babel&#45;plugin&#45;blade/src/replace.js -->
<g id="node6" class="node">
<title>../packages/babel&#45;plugin&#45;blade/src/replace.js</title>
<g id="a_node6"><a xlink:href="../packages/babel-plugin-blade/src/replace.js" xlink:title="replace.js">
<path fill="#ffffcc" stroke="#000000" d="M308.1189,-201.5C308.1189,-201.5 265.4119,-201.5 265.4119,-201.5 262.5785,-201.5 259.7452,-198.6667 259.7452,-195.8333 259.7452,-195.8333 259.7452,-190.1667 259.7452,-190.1667 259.7452,-187.3333 262.5785,-184.5 265.4119,-184.5 265.4119,-184.5 308.1189,-184.5 308.1189,-184.5 310.9522,-184.5 313.7856,-187.3333 313.7856,-190.1667 313.7856,-190.1667 313.7856,-195.8333 313.7856,-195.8333 313.7856,-198.6667 310.9522,-201.5 308.1189,-201.5"/>
<text text-anchor="middle" x="286.7654" y="-190.3" font-family="Helvetica,sans-Serif" font-size="9.00" fill="#000000">replace.js</text>
</a>
</g>
</g>
<!-- ../packages/babel&#45;plugin&#45;blade/src/replace.js&#45;&gt;../packages/babel&#45;plugin&#45;blade/src/helpers.js -->
<g id="edge5" class="edge">
<title>../packages/babel&#45;plugin&#45;blade/src/replace.js&#45;&gt;../packages/babel&#45;plugin&#45;blade/src/helpers.js</title>
<path fill="none" stroke="#000000" d="M313.8118,-200.4682C326.2104,-203.8918 341.108,-208.0054 354.545,-211.7157"/>
<polygon fill="#000000" stroke="#000000" points="353.8992,-215.1683 364.47,-214.4563 355.7624,-208.4208 353.8992,-215.1683"/>
</g>
<!-- ../packages/blade.macro/index.js -->
<g id="node7" class="node">
<title>../packages/blade.macro/index.js</title>
<g id="a_node7"><a xlink:href="../packages/blade.macro/index.js" xlink:title="index.js">
<path fill="#ffffcc" stroke="#000000" d="M88.3333,-108.5C88.3333,-108.5 45.6667,-108.5 45.6667,-108.5 42.8333,-108.5 40,-105.6667 40,-102.8333 40,-102.8333 40,-97.1667 40,-97.1667 40,-94.3333 42.8333,-91.5 45.6667,-91.5 45.6667,-91.5 88.3333,-91.5 88.3333,-91.5 91.1667,-91.5 94,-94.3333 94,-97.1667 94,-97.1667 94,-102.8333 94,-102.8333 94,-105.6667 91.1667,-108.5 88.3333,-108.5"/>
<text text-anchor="middle" x="67" y="-97.3" font-family="Helvetica,sans-Serif" font-size="9.00" fill="#000000">index.js</text>
</a>
</g>
</g>
<!-- babel&#45;plugin&#45;blade/macro -->
<g id="node8" class="node">
<title>babel&#45;plugin&#45;blade/macro</title>
<path fill="#ffffcc" stroke="#ff0000" d="M190.3333,-33.5C190.3333,-33.5 147.6667,-33.5 147.6667,-33.5 144.8333,-33.5 142,-30.6667 142,-27.8333 142,-27.8333 142,-22.1667 142,-22.1667 142,-19.3333 144.8333,-16.5 147.6667,-16.5 147.6667,-16.5 190.3333,-16.5 190.3333,-16.5 193.1667,-16.5 196,-19.3333 196,-22.1667 196,-22.1667 196,-27.8333 196,-27.8333 196,-30.6667 193.1667,-33.5 190.3333,-33.5"/>
<text text-anchor="middle" x="169" y="-22.3" font-family="Helvetica,sans-Serif" font-size="9.00" fill="#ff0000">macro</text>
</g>
<!-- ../packages/blade.macro/index.js&#45;&gt;babel&#45;plugin&#45;blade/macro -->
<g id="edge6" class="edge">
<title>../packages/blade.macro/index.js&#45;&gt;babel&#45;plugin&#45;blade/macro</title>
<path fill="none" stroke="#000000" d="M78.7007,-91.3965C95.9167,-78.7377 128.2926,-54.9319 149.237,-39.5316"/>
<polygon fill="#000000" stroke="#000000" points="151.4526,-42.2468 157.4358,-33.5031 147.3059,-36.6073 151.4526,-42.2468"/>
</g>
</g>
</svg>
